<svg width="25" height="20" viewBox="0 0 25 20" fill="none" xmlns="http://www.w3.org/2000/svg">
<path d="M11.0798 6.17187C11.0798 5.52734 11.5537 5 12.1948 5C12.8081 5 13.3098 5.52734 13.3098 6.17187V10.5371C13.5328 10.3027 13.8395 10.1562 14.2018 10.1562C14.7594 10.1562 15.2611 10.5371 15.4563 11.0937C15.6793 10.8008 16.0416 10.625 16.4319 10.625C17.1288 10.625 17.7142 11.2109 17.7421 11.9434C17.9929 11.709 18.2996 11.5625 18.662 11.5625C19.3867 11.5625 20 12.207 20 12.9687V16.25C20 18.3301 18.3832 20 16.4319 20H14.0346C13.8952 20 13.7558 20 13.6443 19.9707C12.0833 19.8242 10.6616 18.9746 9.74173 17.6562L7.73468 14.8437C7.34442 14.3457 7.45592 13.6133 7.95768 13.2031C8.43157 12.8223 9.12846 12.9395 9.51872 13.4375L11.0798 15.6348V6.17187ZM14.2018 13.9062C14.2018 13.6719 13.9788 13.4375 13.7558 13.4375C13.505 13.4375 13.3098 13.6719 13.3098 13.9062V16.7187C13.3098 16.9824 13.505 17.1875 13.7558 17.1875C13.9788 17.1875 14.2018 16.9824 14.2018 16.7187V13.9062ZM15.5399 13.4375C15.289 13.4375 15.0939 13.6719 15.0939 13.9062V16.7187C15.0939 16.9824 15.289 17.1875 15.5399 17.1875C15.7629 17.1875 15.9859 16.9824 15.9859 16.7187V13.9062C15.9859 13.6719 15.7629 13.4375 15.5399 13.4375ZM17.7699 13.9062C17.7699 13.6719 17.5469 13.4375 17.3239 13.4375C17.073 13.4375 16.8779 13.6719 16.8779 13.9062V16.7187C16.8779 16.9824 17.073 17.1875 17.3239 17.1875C17.5469 17.1875 17.7699 16.9824 17.7699 16.7187V13.9062Z" fill="#FCFDFF"/>
</svg>
